<?xml version="1.0" encoding="us-ascii" standalone="no"?><svg xmlns="http://www.w3.org/2000/svg" xmlns:xlink="http://www.w3.org/1999/xlink" contentStyleType="text/css" height="689px" preserveAspectRatio="none" style="width:491px;height:689px;background:#FFFFFF;" version="1.1" viewBox="0 0 491 689" width="491px" zoomAndPan="magnify"><defs/><g><text fill="#000000" font-family="sans-serif" font-size="14" font-weight="bold" lengthAdjust="spacing" textLength="247" x="120.875" y="34.5332">Client Registration Activity Diagram</text><ellipse cx="283" cy="58.6094" fill="#222222" rx="10" ry="10" style="stroke:#222222;stroke-width:1.0;"/><path d="M10,92.9805 L10,119.332 A0,0 0 0 0 10,119.332 L212,119.332 A0,0 0 0 0 212,119.332 L212,110.9805 L232,106.1563 L212,102.9805 L212,102.9805 L202,92.9805 L10,92.9805 A0,0 0 0 0 10,92.9805 " fill="#FFFFE0" style="stroke:#B8860B;stroke-width:0.5;"/><path d="M202,92.9805 L202,102.9805 L212,102.9805 L202,92.9805 " fill="#FFFFE0" style="stroke:#B8860B;stroke-width:0.5;"/><text fill="#000000" font-family="sans-serif" font-size="13" lengthAdjust="spacing" textLength="181" x="16" y="111.4756">Function exposed to the Client;</text><rect fill="#87CEFA" height="35.0938" rx="12.5" ry="12.5" style="stroke:#00008B;stroke-width:0.5;" width="102" x="232" y="88.6094"/><text fill="#000000" font-family="sans-serif" font-size="12" lengthAdjust="spacing" textLength="82" x="242" y="111.0664">Register Client</text><rect fill="#87CEFA" height="35.0938" rx="12.5" ry="12.5" style="stroke:#00008B;stroke-width:0.5;" width="178" x="194" y="143.7031"/><text fill="#000000" font-family="sans-serif" font-size="12" lengthAdjust="spacing" textLength="158" x="204" y="166.1602">Receiving xml file from Client</text><polygon fill="#87CEFA" points="227,198.7969,339,198.7969,351,210.7969,339,222.7969,227,222.7969,215,210.7969,227,198.7969" style="stroke:#00008B;stroke-width:0.5;"/><text fill="#000000" font-family="sans-serif" font-size="11" lengthAdjust="spacing" textLength="112" x="227" y="215.2979">Validating the XML file?</text><text fill="#000000" font-family="sans-serif" font-size="11" lengthAdjust="spacing" textLength="20" x="195" y="208.3799">Yes</text><text fill="#000000" font-family="sans-serif" font-size="11" lengthAdjust="spacing" textLength="13" x="351" y="208.3799">No</text><rect fill="#87CEFA" height="35.0938" rx="12.5" ry="12.5" style="stroke:#00008B;stroke-width:0.5;" width="269" x="30.25" y="232.7969"/><text fill="#000000" font-family="sans-serif" font-size="12" lengthAdjust="spacing" textLength="249" x="40.25" y="255.2539">Retrieving gdid, osgdid, hwgdid using Xml file</text><rect fill="#87CEFA" height="35.0938" rx="12.5" ry="12.5" style="stroke:#00008B;stroke-width:0.5;" width="274" x="27.75" y="287.8906"/><text fill="#000000" font-family="sans-serif" font-size="12" lengthAdjust="spacing" textLength="254" x="37.75" y="310.3477">Generating the registration token using osgdid</text><rect fill="#87CEFA" height="35.0938" rx="12.5" ry="12.5" style="stroke:#00008B;stroke-width:0.5;" width="179" x="75.25" y="391.9023"/><text fill="#000000" font-family="sans-serif" font-size="12" lengthAdjust="spacing" textLength="159" x="85.25" y="414.3594">Unregistered from DC device</text><polygon fill="#87CEFA" points="62.75,342.9844,266.75,342.9844,278.75,354.9844,266.75,366.9844,62.75,366.9844,50.75,354.9844,62.75,342.9844" style="stroke:#00008B;stroke-width:0.5;"/><text fill="#000000" font-family="sans-serif" font-size="11" lengthAdjust="spacing" textLength="20" x="168.75" y="378.4033">Yes</text><text fill="#000000" font-family="sans-serif" font-size="11" lengthAdjust="spacing" textLength="204" x="62.75" y="359.4854">Checking if client already registers as DC?</text><text fill="#000000" font-family="sans-serif" font-size="11" lengthAdjust="spacing" textLength="13" x="278.75" y="352.5674">No</text><polygon fill="#87CEFA" points="164.75,446.9961,176.75,458.9961,164.75,470.9961,152.75,458.9961,164.75,446.9961" style="stroke:#00008B;stroke-width:0.5;"/><rect fill="#87CEFA" height="35.0938" rx="12.5" ry="12.5" style="stroke:#00008B;stroke-width:0.5;" width="189" x="70.25" y="490.9961"/><text fill="#000000" font-family="sans-serif" font-size="12" lengthAdjust="spacing" textLength="169" x="80.25" y="513.4531">Register as the new CC device</text><rect fill="#87CEFA" height="35.0938" rx="12.5" ry="12.5" style="stroke:#00008B;stroke-width:0.5;" width="166" x="81.75" y="546.0898"/><text fill="#000000" font-family="sans-serif" font-size="12" lengthAdjust="spacing" textLength="146" x="91.75" y="568.5469">Perform the activity logging</text><rect fill="#87CEFA" height="35.0938" rx="12.5" ry="12.5" style="stroke:#00008B;stroke-width:0.5;" width="274" x="27.75" y="601.1836"/><text fill="#000000" font-family="sans-serif" font-size="12" lengthAdjust="spacing" textLength="254" x="37.75" y="623.6406">Submitting all the relevant information to SADB</text><ellipse cx="164.75" cy="667.2773" fill="none" rx="11" ry="11" style="stroke:#222222;stroke-width:1.0;"/><ellipse cx="164.75" cy="667.2773" fill="#222222" rx="6" ry="6" style="stroke:#222222;stroke-width:1.0;"/><rect fill="#87CEFA" height="35.0938" rx="12.5" ry="12.5" style="stroke:#00008B;stroke-width:0.5;" width="159" x="321.75" y="232.7969"/><text fill="#000000" font-family="sans-serif" font-size="12" lengthAdjust="spacing" textLength="139" x="331.75" y="255.2539">Raising the suitable error</text><ellipse cx="401.25" cy="298.8906" fill="none" rx="11" ry="11" style="stroke:#222222;stroke-width:1.0;"/><ellipse cx="401.25" cy="298.8906" fill="#222222" rx="6" ry="6" style="stroke:#222222;stroke-width:1.0;"/><line style="stroke:#181818;stroke-width:1.0;" x1="283" x2="283" y1="68.6094" y2="88.6094"/><polygon fill="#181818" points="279,78.6094,283,88.6094,287,78.6094,283,82.6094" style="stroke:#181818;stroke-width:1.0;"/><line style="stroke:#181818;stroke-width:1.0;" x1="283" x2="283" y1="123.7031" y2="143.7031"/><polygon fill="#181818" points="279,133.7031,283,143.7031,287,133.7031,283,137.7031" style="stroke:#181818;stroke-width:1.0;"/><line style="stroke:#181818;stroke-width:1.0;" x1="164.75" x2="164.75" y1="267.8906" y2="287.8906"/><polygon fill="#181818" points="160.75,277.8906,164.75,287.8906,168.75,277.8906,164.75,281.8906" style="stroke:#181818;stroke-width:1.0;"/><line style="stroke:#181818;stroke-width:1.0;" x1="164.75" x2="164.75" y1="366.9844" y2="391.9023"/><polygon fill="#181818" points="160.75,381.9023,164.75,391.9023,168.75,381.9023,164.75,385.9023" style="stroke:#181818;stroke-width:1.0;"/><line style="stroke:#181818;stroke-width:1.0;" x1="278.75" x2="290.75" y1="354.9844" y2="354.9844"/><polygon fill="#181818" points="286.75,399.4492,290.75,409.4492,294.75,399.4492,290.75,403.4492" style="stroke:#181818;stroke-width:1.0;"/><line style="stroke:#181818;stroke-width:1.0;" x1="290.75" x2="290.75" y1="354.9844" y2="458.9961"/><line style="stroke:#181818;stroke-width:1.0;" x1="290.75" x2="176.75" y1="458.9961" y2="458.9961"/><polygon fill="#181818" points="186.75,454.9961,176.75,458.9961,186.75,462.9961,182.75,458.9961" style="stroke:#181818;stroke-width:1.0;"/><line style="stroke:#181818;stroke-width:1.0;" x1="164.75" x2="164.75" y1="426.9961" y2="446.9961"/><polygon fill="#181818" points="160.75,436.9961,164.75,446.9961,168.75,436.9961,164.75,440.9961" style="stroke:#181818;stroke-width:1.0;"/><line style="stroke:#181818;stroke-width:1.0;" x1="164.75" x2="164.75" y1="322.9844" y2="342.9844"/><polygon fill="#181818" points="160.75,332.9844,164.75,342.9844,168.75,332.9844,164.75,336.9844" style="stroke:#181818;stroke-width:1.0;"/><line style="stroke:#181818;stroke-width:1.0;" x1="164.75" x2="164.75" y1="470.9961" y2="490.9961"/><polygon fill="#181818" points="160.75,480.9961,164.75,490.9961,168.75,480.9961,164.75,484.9961" style="stroke:#181818;stroke-width:1.0;"/><line style="stroke:#181818;stroke-width:1.0;" x1="164.75" x2="164.75" y1="526.0898" y2="546.0898"/><polygon fill="#181818" points="160.75,536.0898,164.75,546.0898,168.75,536.0898,164.75,540.0898" style="stroke:#181818;stroke-width:1.0;"/><line style="stroke:#181818;stroke-width:1.0;" x1="164.75" x2="164.75" y1="581.1836" y2="601.1836"/><polygon fill="#181818" points="160.75,591.1836,164.75,601.1836,168.75,591.1836,164.75,595.1836" style="stroke:#181818;stroke-width:1.0;"/><line style="stroke:#181818;stroke-width:1.0;" x1="164.75" x2="164.75" y1="636.2773" y2="656.2773"/><polygon fill="#181818" points="160.75,646.2773,164.75,656.2773,168.75,646.2773,164.75,650.2773" style="stroke:#181818;stroke-width:1.0;"/><line style="stroke:#181818;stroke-width:1.0;" x1="401.25" x2="401.25" y1="267.8906" y2="287.8906"/><polygon fill="#181818" points="397.25,277.8906,401.25,287.8906,405.25,277.8906,401.25,281.8906" style="stroke:#181818;stroke-width:1.0;"/><line style="stroke:#181818;stroke-width:1.0;" x1="215" x2="164.75" y1="210.7969" y2="210.7969"/><line style="stroke:#181818;stroke-width:1.0;" x1="164.75" x2="164.75" y1="210.7969" y2="232.7969"/><polygon fill="#181818" points="160.75,222.7969,164.75,232.7969,168.75,222.7969,164.75,226.7969" style="stroke:#181818;stroke-width:1.0;"/><line style="stroke:#181818;stroke-width:1.0;" x1="351" x2="401.25" y1="210.7969" y2="210.7969"/><line style="stroke:#181818;stroke-width:1.0;" x1="401.25" x2="401.25" y1="210.7969" y2="232.7969"/><polygon fill="#181818" points="397.25,222.7969,401.25,232.7969,405.25,222.7969,401.25,226.7969" style="stroke:#181818;stroke-width:1.0;"/><line style="stroke:#181818;stroke-width:1.0;" x1="283" x2="283" y1="178.7969" y2="198.7969"/><polygon fill="#181818" points="279,188.7969,283,198.7969,287,188.7969,283,192.7969" style="stroke:#181818;stroke-width:1.0;"/><!--SRC=[VLB1Rjim3BthAuYUKc1Va1w6niPwQOiXmORsg5gqGrWM0ufk6XJzzqcMlQJOK5raWUyzlaTQIJt2LUK9Wy8MEuegLea3t3PAhwGdgCbsOeShOs9FuM3JDzYb-6uWdOrj-avu3AvYpmBtrErrrvysViG2O74efLXRwQV2nuLWOCMln9xHUpx-L-kElSEmPPS4JLGhQiowH4614kt6cDnX_MCCpPGEtmuSqO4ow1xFg4HiC4KB7RmD7bfAusc5XpCY7sfXzTjwScbK2PaLdXxk9_Jtw_mCi7h6U3tvJP8gX9DcvyXz0uxbtX_p3MFCfQUvtKqXtM50ESlBvMgK-zIXq8fM8MLRrHwRFXVIeobhjLxGkjEiWHB1HgYhVvrEZN-51PV6CqMlAt39VZDRGnyHLezSE1WSjKlEUUP9FdiEU8JgCtVz4wLb6QRwtv_8SzSbopDaDxuCf5Dow_sStkEhJL4ePFOo1TZTrfl2Yie7yzdPUcifBlEB8wbzISj44PPBJlR_1m00]--></g></svg>