<?xml version="1.0" encoding="us-ascii" standalone="no"?><svg xmlns="http://www.w3.org/2000/svg" xmlns:xlink="http://www.w3.org/1999/xlink" contentStyleType="text/css" height="634px" preserveAspectRatio="none" style="width:917px;height:634px;background:#FFFFFF;" version="1.1" viewBox="0 0 917 634" width="917px" zoomAndPan="magnify"><defs/><g><text fill="#000000" font-family="sans-serif" font-size="14" font-weight="bold" lengthAdjust="spacing" textLength="269" x="322.75" y="34.5332">Endpoint Registration Activity Diagram</text><ellipse cx="662.5" cy="58.6094" fill="#222222" rx="10" ry="10" style="stroke:#222222;stroke-width:1.0;"/><path d="M431,92.9805 L431,119.332 A0,0 0 0 0 431,119.332 L609,119.332 A0,0 0 0 0 609,119.332 L609,110.9805 L629,106.1563 L609,102.9805 L609,102.9805 L599,92.9805 L431,92.9805 A0,0 0 0 0 431,92.9805 " fill="#FFFFE0" style="stroke:#B8860B;stroke-width:0.5;"/><path d="M599,92.9805 L599,102.9805 L609,102.9805 L599,92.9805 " fill="#FFFFE0" style="stroke:#B8860B;stroke-width:0.5;"/><text fill="#000000" font-family="sans-serif" font-size="13" lengthAdjust="spacing" textLength="157" x="437" y="111.4756">Function exposed to client;</text><rect fill="#87CEFA" height="35.0938" rx="12.5" ry="12.5" style="stroke:#00008B;stroke-width:0.5;" width="67" x="629" y="88.6094"/><text fill="#000000" font-family="sans-serif" font-size="12" lengthAdjust="spacing" textLength="47" x="639" y="111.0664">Register</text><rect fill="#87CEFA" height="35.0938" rx="12.5" ry="12.5" style="stroke:#00008B;stroke-width:0.5;" width="371" x="477" y="143.7031"/><text fill="#000000" font-family="sans-serif" font-size="12" lengthAdjust="spacing" textLength="351" x="487" y="166.1602">Loading all the confiugration from AMC and doing Activity logging</text><path d="M10,203.168 L10,229.5195 A0,0 0 0 0 10,229.5195 L446,229.5195 A0,0 0 0 0 446,229.5195 L446,221.168 L466,216.3438 L446,213.168 L446,213.168 L436,203.168 L10,203.168 A0,0 0 0 0 10,203.168 " fill="#FFFFE0" style="stroke:#B8860B;stroke-width:0.5;"/><path d="M436,203.168 L436,213.168 L446,213.168 L436,203.168 " fill="#FFFFE0" style="stroke:#B8860B;stroke-width:0.5;"/><text fill="#000000" font-family="sans-serif" font-size="13" lengthAdjust="spacing" textLength="415" x="16" y="221.6631">During OOS registration client provide the Registration token and osgdid</text><rect fill="#87CEFA" height="35.0938" rx="12.5" ry="12.5" style="stroke:#00008B;stroke-width:0.5;" width="393" x="466" y="198.7969"/><text fill="#000000" font-family="sans-serif" font-size="12" lengthAdjust="spacing" textLength="373" x="476" y="221.2539">Authenticating the header which is in request file received from client</text><rect fill="#87CEFA" height="35.0938" rx="12.5" ry="12.5" style="stroke:#00008B;stroke-width:0.5;" width="455" x="435" y="253.8906"/><text fill="#000000" font-family="sans-serif" font-size="12" lengthAdjust="spacing" textLength="435" x="445" y="276.3477">Retrieving the endpoint's osgdid,hwgdid using registration info and clienOSgdid</text><rect fill="#87CEFA" height="35.0938" rx="12.5" ry="12.5" style="stroke:#00008B;stroke-width:0.5;" width="179" x="573" y="357.9023"/><text fill="#000000" font-family="sans-serif" font-size="12" lengthAdjust="spacing" textLength="159" x="583" y="380.3594">Unregistered from DC device</text><polygon fill="#87CEFA" points="560.5,308.9844,764.5,308.9844,776.5,320.9844,764.5,332.9844,560.5,332.9844,548.5,320.9844,560.5,308.9844" style="stroke:#00008B;stroke-width:0.5;"/><text fill="#000000" font-family="sans-serif" font-size="11" lengthAdjust="spacing" textLength="20" x="666.5" y="344.4033">Yes</text><text fill="#000000" font-family="sans-serif" font-size="11" lengthAdjust="spacing" textLength="204" x="560.5" y="325.4854">Checking if client already registers as DC?</text><text fill="#000000" font-family="sans-serif" font-size="11" lengthAdjust="spacing" textLength="13" x="776.5" y="318.5674">No</text><polygon fill="#87CEFA" points="662.5,412.9961,674.5,424.9961,662.5,436.9961,650.5,424.9961,662.5,412.9961" style="stroke:#00008B;stroke-width:0.5;"/><rect fill="#87CEFA" height="35.0938" rx="12.5" ry="12.5" style="stroke:#00008B;stroke-width:0.5;" width="197" x="564" y="456.9961"/><text fill="#000000" font-family="sans-serif" font-size="12" lengthAdjust="spacing" textLength="177" x="574" y="479.4531">Register as the new OOS device</text><polygon fill="#87CEFA" points="592.5,512.0898,732.5,512.0898,744.5,524.0898,732.5,536.0898,592.5,536.0898,580.5,524.0898,592.5,512.0898" style="stroke:#00008B;stroke-width:0.5;"/><text fill="#000000" font-family="sans-serif" font-size="11" lengthAdjust="spacing" textLength="140" x="592.5" y="528.5908">Is all the data send to SADB?</text><text fill="#000000" font-family="sans-serif" font-size="11" lengthAdjust="spacing" textLength="20" x="560.5" y="521.6729">Yes</text><text fill="#000000" font-family="sans-serif" font-size="11" lengthAdjust="spacing" textLength="13" x="744.5" y="521.6729">No</text><rect fill="#87CEFA" height="35.0938" rx="12.5" ry="12.5" style="stroke:#00008B;stroke-width:0.5;" width="171" x="460.5" y="546.0898"/><text fill="#000000" font-family="sans-serif" font-size="12" lengthAdjust="spacing" textLength="151" x="470.5" y="568.5469">Store the data in our AppDB</text><ellipse cx="546" cy="612.1836" fill="none" rx="11" ry="11" style="stroke:#222222;stroke-width:1.0;"/><ellipse cx="546" cy="612.1836" fill="#222222" rx="6" ry="6" style="stroke:#222222;stroke-width:1.0;"/><rect fill="#87CEFA" height="35.0938" rx="12.5" ry="12.5" style="stroke:#00008B;stroke-width:0.5;" width="255" x="651.5" y="546.0898"/><text fill="#000000" font-family="sans-serif" font-size="12" lengthAdjust="spacing" textLength="235" x="661.5" y="568.5469">Raise error as sending data to SADB failed</text><ellipse cx="779" cy="612.1836" fill="none" rx="11" ry="11" style="stroke:#222222;stroke-width:1.0;"/><ellipse cx="779" cy="612.1836" fill="#222222" rx="6" ry="6" style="stroke:#222222;stroke-width:1.0;"/><line style="stroke:#181818;stroke-width:1.0;" x1="662.5" x2="662.5" y1="68.6094" y2="88.6094"/><polygon fill="#181818" points="658.5,78.6094,662.5,88.6094,666.5,78.6094,662.5,82.6094" style="stroke:#181818;stroke-width:1.0;"/><line style="stroke:#181818;stroke-width:1.0;" x1="662.5" x2="662.5" y1="123.7031" y2="143.7031"/><polygon fill="#181818" points="658.5,133.7031,662.5,143.7031,666.5,133.7031,662.5,137.7031" style="stroke:#181818;stroke-width:1.0;"/><line style="stroke:#181818;stroke-width:1.0;" x1="662.5" x2="662.5" y1="178.7969" y2="198.7969"/><polygon fill="#181818" points="658.5,188.7969,662.5,198.7969,666.5,188.7969,662.5,192.7969" style="stroke:#181818;stroke-width:1.0;"/><line style="stroke:#181818;stroke-width:1.0;" x1="662.5" x2="662.5" y1="233.8906" y2="253.8906"/><polygon fill="#181818" points="658.5,243.8906,662.5,253.8906,666.5,243.8906,662.5,247.8906" style="stroke:#181818;stroke-width:1.0;"/><line style="stroke:#181818;stroke-width:1.0;" x1="662.5" x2="662.5" y1="332.9844" y2="357.9023"/><polygon fill="#181818" points="658.5,347.9023,662.5,357.9023,666.5,347.9023,662.5,351.9023" style="stroke:#181818;stroke-width:1.0;"/><line style="stroke:#181818;stroke-width:1.0;" x1="776.5" x2="788.5" y1="320.9844" y2="320.9844"/><polygon fill="#181818" points="784.5,365.4492,788.5,375.4492,792.5,365.4492,788.5,369.4492" style="stroke:#181818;stroke-width:1.0;"/><line style="stroke:#181818;stroke-width:1.0;" x1="788.5" x2="788.5" y1="320.9844" y2="424.9961"/><line style="stroke:#181818;stroke-width:1.0;" x1="788.5" x2="674.5" y1="424.9961" y2="424.9961"/><polygon fill="#181818" points="684.5,420.9961,674.5,424.9961,684.5,428.9961,680.5,424.9961" style="stroke:#181818;stroke-width:1.0;"/><line style="stroke:#181818;stroke-width:1.0;" x1="662.5" x2="662.5" y1="392.9961" y2="412.9961"/><polygon fill="#181818" points="658.5,402.9961,662.5,412.9961,666.5,402.9961,662.5,406.9961" style="stroke:#181818;stroke-width:1.0;"/><line style="stroke:#181818;stroke-width:1.0;" x1="662.5" x2="662.5" y1="288.9844" y2="308.9844"/><polygon fill="#181818" points="658.5,298.9844,662.5,308.9844,666.5,298.9844,662.5,302.9844" style="stroke:#181818;stroke-width:1.0;"/><line style="stroke:#181818;stroke-width:1.0;" x1="662.5" x2="662.5" y1="436.9961" y2="456.9961"/><polygon fill="#181818" points="658.5,446.9961,662.5,456.9961,666.5,446.9961,662.5,450.9961" style="stroke:#181818;stroke-width:1.0;"/><line style="stroke:#181818;stroke-width:1.0;" x1="546" x2="546" y1="581.1836" y2="601.1836"/><polygon fill="#181818" points="542,591.1836,546,601.1836,550,591.1836,546,595.1836" style="stroke:#181818;stroke-width:1.0;"/><line style="stroke:#181818;stroke-width:1.0;" x1="779" x2="779" y1="581.1836" y2="601.1836"/><polygon fill="#181818" points="775,591.1836,779,601.1836,783,591.1836,779,595.1836" style="stroke:#181818;stroke-width:1.0;"/><line style="stroke:#181818;stroke-width:1.0;" x1="580.5" x2="546" y1="524.0898" y2="524.0898"/><line style="stroke:#181818;stroke-width:1.0;" x1="546" x2="546" y1="524.0898" y2="546.0898"/><polygon fill="#181818" points="542,536.0898,546,546.0898,550,536.0898,546,540.0898" style="stroke:#181818;stroke-width:1.0;"/><line style="stroke:#181818;stroke-width:1.0;" x1="744.5" x2="779" y1="524.0898" y2="524.0898"/><line style="stroke:#181818;stroke-width:1.0;" x1="779" x2="779" y1="524.0898" y2="546.0898"/><polygon fill="#181818" points="775,536.0898,779,546.0898,783,536.0898,779,540.0898" style="stroke:#181818;stroke-width:1.0;"/><line style="stroke:#181818;stroke-width:1.0;" x1="662.5" x2="662.5" y1="492.0898" y2="512.0898"/><polygon fill="#181818" points="658.5,502.0898,662.5,512.0898,666.5,502.0898,662.5,506.0898" style="stroke:#181818;stroke-width:1.0;"/><!--SRC=[VLDDKzim4BtxL-nmQJBJCaaA79n3czX0OH9WC333KLXhHnD5wqgoGwRJ_zwLyb6OeTN5blJsxTltRA-yHZWwDx8XPJpSOwsSjy8hCZ0flUgKtq2kH6t5wYZXvPRAD89t8FRNlnBWDHNbihRK6fcH9WipLIzyiTnCTOjR05c9TdkP2xkC5x_V41ho-3-oPzIQrXzoNPAMQEv91a8lh4-IT3iBsZ6h3jJfHMlAE1Y-DkHGWYSejKBZ0oITaP3Ar22q1hz0ACbKggrtPbIMLZ2PPo2C14a1UF17KrtpmJX99orN6gzABc94e5cWOAcmNgXo0Sg1Cc3nPulEGwNOV8ibgexLn0vxFL5mtjh0SdjRCEfDC5iGD9Ow9J5sUHUSfoMQA9HSBPMCPdYhiDkBmbtWdzmEydcn3WzeNO2ywwPCHP4ijhqj0euDKnNqiWMMor30cvqeeIqFlDbHe7KW7EJPjtxeQw3tZAuV8mmhVJHxtDw0F0F9EaiSHnHgXz2xeMqDorPLV3ka6-Z3H0RNqQXzSTHtvGvfIk45E2O8gHUJVFeFHOKdYtyhE2rgBKoQ9f-E3oZdgVb8NnGc51-XjHIrXPR1eSYsQmsLuEJbWUyDtM70x_pQhdIIt6bX_EDy1XsR6V8O7ey6evFZhxqBg-02Ns1u1eDXEXoaWrEuAXuWNFUJtkNTh1k1O_ab3nFoL2zjIBIVN8jEm7tB7-eAKmYxtiEy3yNv_X3EJQSicHL7cbm_pRSW-46-QCX7yDd9bwdoKA1bOV0qJtAiHAizbvOKHauXQuQZqr4o4wPkHSsTq2GP_zJURbAukla3]--></g></svg>