<?xml version="1.0" encoding="us-ascii" standalone="no"?><svg xmlns="http://www.w3.org/2000/svg" xmlns:xlink="http://www.w3.org/1999/xlink" contentStyleType="text/css" height="638px" preserveAspectRatio="none" style="width:882px;height:638px;background:#FFFFFF;" version="1.1" viewBox="0 0 882 638" width="882px" zoomAndPan="magnify"><defs/><g><text fill="#000000" font-family="sans-serif" font-size="14" font-weight="bold" lengthAdjust="spacing" textLength="302" x="288.5" y="34.5332">Stats Devices Registration Activity Diagram</text><ellipse cx="318.25" cy="58.6094" fill="#222222" rx="10" ry="10" style="stroke:#222222;stroke-width:1.0;"/><path d="M44.75,92.9805 L44.75,119.332 A0,0 0 0 0 44.75,119.332 L244.75,119.332 A0,0 0 0 0 244.75,119.332 L244.75,110.9805 L264.75,106.1563 L244.75,102.9805 L244.75,102.9805 L234.75,92.9805 L44.75,92.9805 A0,0 0 0 0 44.75,92.9805 " fill="#FFFFE0" style="stroke:#B8860B;stroke-width:0.5;"/><path d="M234.75,92.9805 L234.75,102.9805 L244.75,102.9805 L234.75,92.9805 " fill="#FFFFE0" style="stroke:#B8860B;stroke-width:0.5;"/><text fill="#000000" font-family="sans-serif" font-size="13" lengthAdjust="spacing" textLength="179" x="50.75" y="111.4756">Function exposed to the client;</text><rect fill="#87CEFA" height="35.0938" rx="12.5" ry="12.5" style="stroke:#00008B;stroke-width:0.5;" width="107" x="264.75" y="88.6094"/><text fill="#000000" font-family="sans-serif" font-size="12" lengthAdjust="spacing" textLength="87" x="274.75" y="111.0664">Register Device</text><polygon fill="#87CEFA" points="211.75,143.7031,424.75,143.7031,436.75,155.7031,424.75,167.7031,211.75,167.7031,199.75,155.7031,211.75,143.7031" style="stroke:#00008B;stroke-width:0.5;"/><text fill="#000000" font-family="sans-serif" font-size="11" lengthAdjust="spacing" textLength="213" x="211.75" y="160.2041">Checking if DBID received from client is null?</text><text fill="#000000" font-family="sans-serif" font-size="11" lengthAdjust="spacing" textLength="18" x="181.75" y="153.2861">yes</text><text fill="#000000" font-family="sans-serif" font-size="11" lengthAdjust="spacing" textLength="13" x="436.75" y="153.2861">No</text><rect fill="#87CEFA" height="35.0938" rx="12.5" ry="12.5" style="stroke:#00008B;stroke-width:0.5;" width="175" x="11" y="177.7031"/><text fill="#000000" font-family="sans-serif" font-size="12" lengthAdjust="spacing" textLength="155" x="21" y="200.1602">Raise the error(DBID is null)</text><ellipse cx="98.5" cy="243.7969" fill="none" rx="11" ry="11" style="stroke:#222222;stroke-width:1.0;"/><ellipse cx="98.5" cy="243.7969" fill="#222222" rx="6" ry="6" style="stroke:#222222;stroke-width:1.0;"/><rect fill="#87CEFA" height="35.0938" rx="12.5" ry="12.5" style="stroke:#00008B;stroke-width:0.5;" width="225" x="425.5" y="177.7031"/><text fill="#000000" font-family="sans-serif" font-size="12" lengthAdjust="spacing" textLength="205" x="435.5" y="200.1602">Generating and Validating the Xml file</text><rect fill="#87CEFA" height="35.0938" rx="12.5" ry="12.5" style="stroke:#00008B;stroke-width:0.5;" width="334" x="371" y="232.7969"/><text fill="#000000" font-family="sans-serif" font-size="12" lengthAdjust="spacing" textLength="314" x="381" y="255.2539">Extracting all the info required for registration from Xml file</text><polygon fill="#87CEFA" points="478,287.8906,598,287.8906,610,299.8906,598,311.8906,478,311.8906,466,299.8906,478,287.8906" style="stroke:#00008B;stroke-width:0.5;"/><text fill="#000000" font-family="sans-serif" font-size="11" lengthAdjust="spacing" textLength="120" x="478" y="304.3916">Checking Device Status?</text><rect fill="#87CEFA" height="35.0938" rx="12.5" ry="12.5" style="stroke:#00008B;stroke-width:0.5;" width="237" x="206" y="349.5625"/><text fill="#000000" font-family="sans-serif" font-size="12" lengthAdjust="spacing" textLength="217" x="216" y="372.0195">Send the message(Already Registered)</text><ellipse cx="324.5" cy="430.6563" fill="none" rx="11" ry="11" style="stroke:#222222;stroke-width:1.0;"/><ellipse cx="324.5" cy="430.6563" fill="#222222" rx="6" ry="6" style="stroke:#222222;stroke-width:1.0;"/><rect fill="#87CEFA" height="35.0938" rx="12.5" ry="12.5" style="stroke:#00008B;stroke-width:0.5;" width="191" x="463" y="349.5625"/><text fill="#000000" font-family="sans-serif" font-size="12" lengthAdjust="spacing" textLength="171" x="473" y="372.0195">Jump to Complete Registration</text><rect fill="#87CEFA" height="65.2813" rx="12.5" ry="12.5" style="stroke:#00008B;stroke-width:0.5;" width="170" x="674" y="349.5625"/><text fill="#000000" font-family="sans-serif" font-size="12" lengthAdjust="spacing" textLength="150" x="684" y="372.0195">Perform partial registration(</text><text fill="#000000" font-family="sans-serif" font-size="12" lengthAdjust="spacing" textLength="127" x="687" y="387.1133">Putting all detail to SBS</text><text fill="#000000" font-family="sans-serif" font-size="12" lengthAdjust="spacing" textLength="4" x="687" y="402.207">)</text><polygon fill="#87CEFA" points="538,451.6563,538,451.6563,550,463.6563,538,475.6563,538,475.6563,526,463.6563,538,451.6563" style="stroke:#00008B;stroke-width:0.5;"/><rect fill="#87CEFA" height="35.0938" rx="12.5" ry="12.5" style="stroke:#00008B;stroke-width:0.5;" width="215" x="430.5" y="495.6563"/><text fill="#000000" font-family="sans-serif" font-size="12" lengthAdjust="spacing" textLength="195" x="440.5" y="518.1133">Performing Completed Registration</text><rect fill="#87CEFA" height="35.0938" rx="12.5" ry="12.5" style="stroke:#00008B;stroke-width:0.5;" width="154" x="461" y="550.75"/><text fill="#000000" font-family="sans-serif" font-size="12" lengthAdjust="spacing" textLength="134" x="471" y="573.207">Submitting data to SADB</text><ellipse cx="538" cy="616.8438" fill="none" rx="11" ry="11" style="stroke:#222222;stroke-width:1.0;"/><ellipse cx="538" cy="616.8438" fill="#222222" rx="6" ry="6" style="stroke:#222222;stroke-width:1.0;"/><line style="stroke:#181818;stroke-width:1.0;" x1="318.25" x2="318.25" y1="68.6094" y2="88.6094"/><polygon fill="#181818" points="314.25,78.6094,318.25,88.6094,322.25,78.6094,318.25,82.6094" style="stroke:#181818;stroke-width:1.0;"/><line style="stroke:#181818;stroke-width:1.0;" x1="98.5" x2="98.5" y1="212.7969" y2="232.7969"/><polygon fill="#181818" points="94.5,222.7969,98.5,232.7969,102.5,222.7969,98.5,226.7969" style="stroke:#181818;stroke-width:1.0;"/><line style="stroke:#181818;stroke-width:1.0;" x1="538" x2="538" y1="212.7969" y2="232.7969"/><polygon fill="#181818" points="534,222.7969,538,232.7969,542,222.7969,538,226.7969" style="stroke:#181818;stroke-width:1.0;"/><line style="stroke:#181818;stroke-width:1.0;" x1="324.5" x2="324.5" y1="384.6563" y2="419.6563"/><polygon fill="#181818" points="320.5,409.6563,324.5,419.6563,328.5,409.6563,324.5,413.6563" style="stroke:#181818;stroke-width:1.0;"/><line style="stroke:#181818;stroke-width:1.0;" x1="466" x2="324.5" y1="299.8906" y2="299.8906"/><line style="stroke:#181818;stroke-width:1.0;" x1="324.5" x2="324.5" y1="299.8906" y2="349.5625"/><polygon fill="#181818" points="320.5,339.5625,324.5,349.5625,328.5,339.5625,324.5,343.5625" style="stroke:#181818;stroke-width:1.0;"/><text fill="#000000" font-family="sans-serif" font-size="11" lengthAdjust="spacing" textLength="107" x="324.5" y="329.2275">Completely Registered</text><line style="stroke:#181818;stroke-width:1.0;" x1="610" x2="759" y1="299.8906" y2="299.8906"/><line style="stroke:#181818;stroke-width:1.0;" x1="759" x2="759" y1="299.8906" y2="349.5625"/><polygon fill="#181818" points="755,339.5625,759,349.5625,763,339.5625,759,343.5625" style="stroke:#181818;stroke-width:1.0;"/><text fill="#000000" font-family="sans-serif" font-size="11" lengthAdjust="spacing" textLength="111" x="759" y="329.2275">Not Partially Registered</text><line style="stroke:#181818;stroke-width:1.0;" x1="538" x2="538" y1="311.8906" y2="324.4479"/><line style="stroke:#181818;stroke-width:1.0;" x1="538" x2="558.5" y1="324.4479" y2="324.4479"/><line style="stroke:#181818;stroke-width:1.0;" x1="558.5" x2="558.5" y1="324.4479" y2="349.5625"/><polygon fill="#181818" points="554.5,339.5625,558.5,349.5625,562.5,339.5625,558.5,343.5625" style="stroke:#181818;stroke-width:1.0;"/><text fill="#000000" font-family="sans-serif" font-size="11" lengthAdjust="spacing" textLength="92" x="538" y="330.2275">Partially Registered</text><line style="stroke:#181818;stroke-width:1.0;" x1="558.5" x2="558.5" y1="384.6563" y2="455.6563"/><line style="stroke:#181818;stroke-width:1.0;" x1="558.5" x2="570.5" y1="455.6563" y2="455.6563"/><line style="stroke:#181818;stroke-width:1.0;" x1="570.5" x2="570.5" y1="455.6563" y2="463.6563"/><line style="stroke:#181818;stroke-width:1.0;" x1="570.5" x2="550" y1="463.6563" y2="463.6563"/><polygon fill="#181818" points="560,459.6563,550,463.6563,560,467.6563,556,463.6563" style="stroke:#181818;stroke-width:1.0;"/><line style="stroke:#181818;stroke-width:1.0;" x1="759" x2="759" y1="414.8438" y2="463.6563"/><line style="stroke:#181818;stroke-width:1.0;" x1="759" x2="550" y1="463.6563" y2="463.6563"/><polygon fill="#181818" points="560,459.6563,550,463.6563,560,467.6563,556,463.6563" style="stroke:#181818;stroke-width:1.0;"/><line style="stroke:#181818;stroke-width:1.0;" x1="538" x2="538" y1="267.8906" y2="287.8906"/><polygon fill="#181818" points="534,277.8906,538,287.8906,542,277.8906,538,281.8906" style="stroke:#181818;stroke-width:1.0;"/><line style="stroke:#181818;stroke-width:1.0;" x1="538" x2="538" y1="475.6563" y2="495.6563"/><polygon fill="#181818" points="534,485.6563,538,495.6563,542,485.6563,538,489.6563" style="stroke:#181818;stroke-width:1.0;"/><line style="stroke:#181818;stroke-width:1.0;" x1="538" x2="538" y1="530.75" y2="550.75"/><polygon fill="#181818" points="534,540.75,538,550.75,542,540.75,538,544.75" style="stroke:#181818;stroke-width:1.0;"/><line style="stroke:#181818;stroke-width:1.0;" x1="538" x2="538" y1="585.8438" y2="605.8438"/><polygon fill="#181818" points="534,595.8438,538,605.8438,542,595.8438,538,599.8438" style="stroke:#181818;stroke-width:1.0;"/><line style="stroke:#181818;stroke-width:1.0;" x1="199.75" x2="98.5" y1="155.7031" y2="155.7031"/><line style="stroke:#181818;stroke-width:1.0;" x1="98.5" x2="98.5" y1="155.7031" y2="177.7031"/><polygon fill="#181818" points="94.5,167.7031,98.5,177.7031,102.5,167.7031,98.5,171.7031" style="stroke:#181818;stroke-width:1.0;"/><line style="stroke:#181818;stroke-width:1.0;" x1="436.75" x2="538" y1="155.7031" y2="155.7031"/><line style="stroke:#181818;stroke-width:1.0;" x1="538" x2="538" y1="155.7031" y2="177.7031"/><polygon fill="#181818" points="534,167.7031,538,177.7031,542,167.7031,538,171.7031" style="stroke:#181818;stroke-width:1.0;"/><line style="stroke:#181818;stroke-width:1.0;" x1="318.25" x2="318.25" y1="123.7031" y2="143.7031"/><polygon fill="#181818" points="314.25,133.7031,318.25,143.7031,322.25,133.7031,318.25,137.7031" style="stroke:#181818;stroke-width:1.0;"/><!--SRC=[VPB1Rjim44Jl_8f5Jl8lo8V0ijeWHH4O5b2qHvPSoGjJf4gkd1X5_xsaA2KoO4GtWiEtCxDYOeFmqB3a03LUI6608tOKs4icPs6dc2x4LwX9Tbxs3qA8S2Oxo7W0kTp-5H2_IgfpvzrezTuPv-4xTITkpjVAZ9W5pclq-RAM_ZnT_5i1hMFy3FOBZN6lTrbFpcYqHwSZK0IMdeKeSnRqSxYjI0FAhwDLKpfy6rn03Uo0JmZA45hUneY2sc9_GXMDTK0jrDLp3HuLqYNAM-_wMGmKm8x6F6uImK9nnR2P_9L7IG4dBdhlV34nPlbcEsa2kq6WYRBYnStFdj1YAZyEbbR33sb8vsD2_UmDj6Gmlo-_lCL5gImsPbAGRLsq-cSadwp6TlnwePFtMqfu9LOd-0YSouBqMupXCVjIChdSktumo6Yki5IBEWkIdGQZusIYnn1aXyNEU9JwHhnA_i4zn7LHJ70V-stiXxIZPVhDBxfTOLuSm-Ue0_fOIGz3LjrqKomgE8pytgb6bcJI-APgtXLpZ9WtjoVMzFHqyQhlc2sRyNTFUKJShPpWkxfQLVCV]--></g></svg>